<mxfile host="app.diagrams.net" agent="Mozilla/5.0 (Windows NT 10.0; Win64; x64) AppleWebKit/537.36 (KHTML, like Gecko) Chrome/136.0.0.0 Safari/537.36" version="27.0.9">
  <diagram name="Page-1" id="qFnQlZ_SsuW7N8ZM_rrR">
    <mxGraphModel dx="1426" dy="743" grid="1" gridSize="10" guides="1" tooltips="1" connect="1" arrows="1" fold="1" page="1" pageScale="1" pageWidth="850" pageHeight="1100" math="0" shadow="0">
      <root>
        <mxCell id="0" />
        <mxCell id="1" parent="0" />
        <mxCell id="gAcOoP5BeK7Uj13Lkmp1-1" value="Users" style="swimlane;html=1;fontStyle=1;childLayout=stackLayout;horizontal=1;startSize=26;fillColor=#e0e0e0;horizontalStack=0;resizeParent=1;resizeLast=0;collapsible=1;marginBottom=0;swimlaneFillColor=#ffffff;align=center;rounded=0;shadow=0;comic=0;labelBackgroundColor=none;strokeWidth=1;fontFamily=Verdana;fontSize=14" vertex="1" parent="1">
          <mxGeometry x="40" y="40" width="210" height="238" as="geometry" />
        </mxCell>
        <mxCell id="gAcOoP5BeK7Uj13Lkmp1-2" value="USER_ID&amp;nbsp;(integer)" style="shape=partialRectangle;top=0;left=0;right=0;bottom=1;html=1;align=left;verticalAlign=middle;fillColor=none;spacingLeft=34;spacingRight=4;whiteSpace=wrap;overflow=hidden;rotatable=0;points=[[0,0.5],[1,0.5]];portConstraint=eastwest;dropTarget=0;fontStyle=5;" vertex="1" parent="gAcOoP5BeK7Uj13Lkmp1-1">
          <mxGeometry y="26" width="210" height="30" as="geometry" />
        </mxCell>
        <mxCell id="gAcOoP5BeK7Uj13Lkmp1-3" value="PK" style="shape=partialRectangle;top=0;left=0;bottom=0;html=1;fillColor=none;align=left;verticalAlign=middle;spacingLeft=4;spacingRight=4;whiteSpace=wrap;overflow=hidden;rotatable=0;points=[];portConstraint=eastwest;part=1;fontStyle=1" vertex="1" connectable="0" parent="gAcOoP5BeK7Uj13Lkmp1-2">
          <mxGeometry width="30" height="30" as="geometry" />
        </mxCell>
        <mxCell id="gAcOoP5BeK7Uj13Lkmp1-4" value="&lt;u&gt;FIRST_NAME&lt;/u&gt; (varchar 255)" style="shape=partialRectangle;top=0;left=0;right=0;bottom=0;html=1;align=left;verticalAlign=top;fillColor=none;spacingLeft=34;spacingRight=4;whiteSpace=wrap;overflow=hidden;rotatable=0;points=[[0,0.5],[1,0.5]];portConstraint=eastwest;dropTarget=0;" vertex="1" parent="gAcOoP5BeK7Uj13Lkmp1-1">
          <mxGeometry y="56" width="210" height="26" as="geometry" />
        </mxCell>
        <mxCell id="gAcOoP5BeK7Uj13Lkmp1-5" value="" style="shape=partialRectangle;top=0;left=0;bottom=0;html=1;fillColor=none;align=left;verticalAlign=top;spacingLeft=4;spacingRight=4;whiteSpace=wrap;overflow=hidden;rotatable=0;points=[];portConstraint=eastwest;part=1;" vertex="1" connectable="0" parent="gAcOoP5BeK7Uj13Lkmp1-4">
          <mxGeometry width="30" height="26" as="geometry" />
        </mxCell>
        <mxCell id="gAcOoP5BeK7Uj13Lkmp1-6" value="&lt;u&gt;LAST_NAME&lt;/u&gt; (varchar 255)" style="shape=partialRectangle;top=0;left=0;right=0;bottom=0;html=1;align=left;verticalAlign=top;fillColor=none;spacingLeft=34;spacingRight=4;whiteSpace=wrap;overflow=hidden;rotatable=0;points=[[0,0.5],[1,0.5]];portConstraint=eastwest;dropTarget=0;" vertex="1" parent="gAcOoP5BeK7Uj13Lkmp1-1">
          <mxGeometry y="82" width="210" height="26" as="geometry" />
        </mxCell>
        <mxCell id="gAcOoP5BeK7Uj13Lkmp1-7" value="" style="shape=partialRectangle;top=0;left=0;bottom=0;html=1;fillColor=none;align=left;verticalAlign=top;spacingLeft=4;spacingRight=4;whiteSpace=wrap;overflow=hidden;rotatable=0;points=[];portConstraint=eastwest;part=1;" vertex="1" connectable="0" parent="gAcOoP5BeK7Uj13Lkmp1-6">
          <mxGeometry width="30" height="26" as="geometry" />
        </mxCell>
        <mxCell id="gAcOoP5BeK7Uj13Lkmp1-8" value="&lt;b style=&quot;&quot;&gt;&lt;u&gt;EMAIL&lt;/u&gt; (varchar 255)&lt;/b&gt;" style="shape=partialRectangle;top=0;left=0;right=0;bottom=0;html=1;align=left;verticalAlign=top;fillColor=none;spacingLeft=34;spacingRight=4;whiteSpace=wrap;overflow=hidden;rotatable=0;points=[[0,0.5],[1,0.5]];portConstraint=eastwest;dropTarget=0;" vertex="1" parent="gAcOoP5BeK7Uj13Lkmp1-1">
          <mxGeometry y="108" width="210" height="26" as="geometry" />
        </mxCell>
        <mxCell id="gAcOoP5BeK7Uj13Lkmp1-9" value="" style="shape=partialRectangle;top=0;left=0;bottom=0;html=1;fillColor=none;align=left;verticalAlign=top;spacingLeft=4;spacingRight=4;whiteSpace=wrap;overflow=hidden;rotatable=0;points=[];portConstraint=eastwest;part=1;" vertex="1" connectable="0" parent="gAcOoP5BeK7Uj13Lkmp1-8">
          <mxGeometry width="31.5" height="26" as="geometry" />
        </mxCell>
        <mxCell id="gAcOoP5BeK7Uj13Lkmp1-10" value="&lt;u&gt;CREATED_AT&lt;/u&gt; (timestamp) (1)" style="shape=partialRectangle;top=0;left=0;right=0;bottom=0;html=1;align=left;verticalAlign=top;fillColor=none;spacingLeft=34;spacingRight=4;whiteSpace=wrap;overflow=hidden;rotatable=0;points=[[0,0.5],[1,0.5]];portConstraint=eastwest;dropTarget=0;" vertex="1" parent="gAcOoP5BeK7Uj13Lkmp1-1">
          <mxGeometry y="134" width="210" height="26" as="geometry" />
        </mxCell>
        <mxCell id="gAcOoP5BeK7Uj13Lkmp1-11" value="" style="shape=partialRectangle;top=0;left=0;bottom=0;html=1;fillColor=none;align=left;verticalAlign=top;spacingLeft=4;spacingRight=4;whiteSpace=wrap;overflow=hidden;rotatable=0;points=[];portConstraint=eastwest;part=1;" vertex="1" connectable="0" parent="gAcOoP5BeK7Uj13Lkmp1-10">
          <mxGeometry width="30" height="26" as="geometry" />
        </mxCell>
        <mxCell id="gAcOoP5BeK7Uj13Lkmp1-12" value="UPDATED_AT (timestamp)" style="shape=partialRectangle;top=0;left=0;right=0;bottom=0;html=1;align=left;verticalAlign=top;fillColor=none;spacingLeft=34;spacingRight=4;whiteSpace=wrap;overflow=hidden;rotatable=0;points=[[0,0.5],[1,0.5]];portConstraint=eastwest;dropTarget=0;" vertex="1" parent="gAcOoP5BeK7Uj13Lkmp1-1">
          <mxGeometry y="160" width="210" height="26" as="geometry" />
        </mxCell>
        <mxCell id="gAcOoP5BeK7Uj13Lkmp1-13" value="" style="shape=partialRectangle;top=0;left=0;bottom=0;html=1;fillColor=none;align=left;verticalAlign=top;spacingLeft=4;spacingRight=4;whiteSpace=wrap;overflow=hidden;rotatable=0;points=[];portConstraint=eastwest;part=1;" vertex="1" connectable="0" parent="gAcOoP5BeK7Uj13Lkmp1-12">
          <mxGeometry width="30" height="26" as="geometry" />
        </mxCell>
        <mxCell id="gAcOoP5BeK7Uj13Lkmp1-14" value="&lt;u&gt;PASSWORD_HASH&lt;/u&gt; (text)" style="shape=partialRectangle;top=0;left=0;right=0;bottom=0;html=1;align=left;verticalAlign=top;fillColor=none;spacingLeft=34;spacingRight=4;whiteSpace=wrap;overflow=hidden;rotatable=0;points=[[0,0.5],[1,0.5]];portConstraint=eastwest;dropTarget=0;" vertex="1" parent="gAcOoP5BeK7Uj13Lkmp1-1">
          <mxGeometry y="186" width="210" height="26" as="geometry" />
        </mxCell>
        <mxCell id="gAcOoP5BeK7Uj13Lkmp1-15" value="" style="shape=partialRectangle;top=0;left=0;bottom=0;html=1;fillColor=none;align=left;verticalAlign=top;spacingLeft=4;spacingRight=4;whiteSpace=wrap;overflow=hidden;rotatable=0;points=[];portConstraint=eastwest;part=1;" vertex="1" connectable="0" parent="gAcOoP5BeK7Uj13Lkmp1-14">
          <mxGeometry width="30" height="26" as="geometry" />
        </mxCell>
        <mxCell id="gAcOoP5BeK7Uj13Lkmp1-48" value="&lt;u&gt;PASSWORD_SALT&lt;/u&gt;&amp;nbsp;(char 20)" style="shape=partialRectangle;top=0;left=0;right=0;bottom=0;html=1;align=left;verticalAlign=top;fillColor=none;spacingLeft=34;spacingRight=4;whiteSpace=wrap;overflow=hidden;rotatable=0;points=[[0,0.5],[1,0.5]];portConstraint=eastwest;dropTarget=0;" vertex="1" parent="gAcOoP5BeK7Uj13Lkmp1-1">
          <mxGeometry y="212" width="210" height="26" as="geometry" />
        </mxCell>
        <mxCell id="gAcOoP5BeK7Uj13Lkmp1-49" value="" style="shape=partialRectangle;top=0;left=0;bottom=0;html=1;fillColor=none;align=left;verticalAlign=top;spacingLeft=4;spacingRight=4;whiteSpace=wrap;overflow=hidden;rotatable=0;points=[];portConstraint=eastwest;part=1;" vertex="1" connectable="0" parent="gAcOoP5BeK7Uj13Lkmp1-48">
          <mxGeometry width="30" height="26" as="geometry" />
        </mxCell>
        <mxCell id="gAcOoP5BeK7Uj13Lkmp1-16" value="Transactions" style="swimlane;html=1;fontStyle=1;childLayout=stackLayout;horizontal=1;startSize=26;fillColor=#e0e0e0;horizontalStack=0;resizeParent=1;resizeLast=0;collapsible=1;marginBottom=0;swimlaneFillColor=#ffffff;align=center;rounded=0;shadow=0;comic=0;labelBackgroundColor=none;strokeWidth=1;fontFamily=Verdana;fontSize=14" vertex="1" parent="1">
          <mxGeometry x="325" y="320" width="255" height="216" as="geometry" />
        </mxCell>
        <mxCell id="gAcOoP5BeK7Uj13Lkmp1-17" value="TRANSACTION_ID (integer)" style="shape=partialRectangle;top=0;left=0;right=0;bottom=1;html=1;align=left;verticalAlign=middle;fillColor=none;spacingLeft=34;spacingRight=4;whiteSpace=wrap;overflow=hidden;rotatable=0;points=[[0,0.5],[1,0.5]];portConstraint=eastwest;dropTarget=0;fontStyle=5;" vertex="1" parent="gAcOoP5BeK7Uj13Lkmp1-16">
          <mxGeometry y="26" width="255" height="30" as="geometry" />
        </mxCell>
        <mxCell id="gAcOoP5BeK7Uj13Lkmp1-18" value="PK" style="shape=partialRectangle;top=0;left=0;bottom=0;html=1;fillColor=none;align=left;verticalAlign=middle;spacingLeft=4;spacingRight=4;whiteSpace=wrap;overflow=hidden;rotatable=0;points=[];portConstraint=eastwest;part=1;fontStyle=1" vertex="1" connectable="0" parent="gAcOoP5BeK7Uj13Lkmp1-17">
          <mxGeometry width="30" height="30" as="geometry" />
        </mxCell>
        <mxCell id="gAcOoP5BeK7Uj13Lkmp1-21" value="ACCOUNT_ID" style="shape=partialRectangle;top=0;left=0;right=0;bottom=1;html=1;align=left;verticalAlign=middle;fillColor=none;spacingLeft=34;spacingRight=4;whiteSpace=wrap;overflow=hidden;rotatable=0;points=[[0,0.5],[1,0.5]];portConstraint=eastwest;dropTarget=0;fontStyle=5;" vertex="1" parent="gAcOoP5BeK7Uj13Lkmp1-16">
          <mxGeometry y="56" width="255" height="30" as="geometry" />
        </mxCell>
        <mxCell id="gAcOoP5BeK7Uj13Lkmp1-22" value="FK" style="shape=partialRectangle;top=0;left=0;bottom=0;html=1;fillColor=none;align=left;verticalAlign=middle;spacingLeft=4;spacingRight=4;whiteSpace=wrap;overflow=hidden;rotatable=0;points=[];portConstraint=eastwest;part=1;fontStyle=1" vertex="1" connectable="0" parent="gAcOoP5BeK7Uj13Lkmp1-21">
          <mxGeometry width="30" height="30" as="geometry" />
        </mxCell>
        <mxCell id="gAcOoP5BeK7Uj13Lkmp1-23" value="CATEGORY (varchar 50)" style="shape=partialRectangle;top=0;left=0;right=0;bottom=0;html=1;align=left;verticalAlign=top;fillColor=none;spacingLeft=34;spacingRight=4;whiteSpace=wrap;overflow=hidden;rotatable=0;points=[[0,0.5],[1,0.5]];portConstraint=eastwest;dropTarget=0;" vertex="1" parent="gAcOoP5BeK7Uj13Lkmp1-16">
          <mxGeometry y="86" width="255" height="26" as="geometry" />
        </mxCell>
        <mxCell id="gAcOoP5BeK7Uj13Lkmp1-24" value="" style="shape=partialRectangle;top=0;left=0;bottom=0;html=1;fillColor=none;align=left;verticalAlign=top;spacingLeft=4;spacingRight=4;whiteSpace=wrap;overflow=hidden;rotatable=0;points=[];portConstraint=eastwest;part=1;" vertex="1" connectable="0" parent="gAcOoP5BeK7Uj13Lkmp1-23">
          <mxGeometry width="30" height="26" as="geometry" />
        </mxCell>
        <mxCell id="gAcOoP5BeK7Uj13Lkmp1-25" value="&lt;u&gt;AMMOUNT&lt;/u&gt; (real) (3)" style="shape=partialRectangle;top=0;left=0;right=0;bottom=0;html=1;align=left;verticalAlign=top;fillColor=none;spacingLeft=34;spacingRight=4;whiteSpace=wrap;overflow=hidden;rotatable=0;points=[[0,0.5],[1,0.5]];portConstraint=eastwest;dropTarget=0;" vertex="1" parent="gAcOoP5BeK7Uj13Lkmp1-16">
          <mxGeometry y="112" width="255" height="26" as="geometry" />
        </mxCell>
        <mxCell id="gAcOoP5BeK7Uj13Lkmp1-26" value="" style="shape=partialRectangle;top=0;left=0;bottom=0;html=1;fillColor=none;align=left;verticalAlign=top;spacingLeft=4;spacingRight=4;whiteSpace=wrap;overflow=hidden;rotatable=0;points=[];portConstraint=eastwest;part=1;" vertex="1" connectable="0" parent="gAcOoP5BeK7Uj13Lkmp1-25">
          <mxGeometry width="30" height="26" as="geometry" />
        </mxCell>
        <mxCell id="gAcOoP5BeK7Uj13Lkmp1-27" value="&lt;u&gt;TRANSACTION_DATE (timestamp)&lt;/u&gt; (4)" style="shape=partialRectangle;top=0;left=0;right=0;bottom=0;html=1;align=left;verticalAlign=top;fillColor=none;spacingLeft=34;spacingRight=4;whiteSpace=wrap;overflow=hidden;rotatable=0;points=[[0,0.5],[1,0.5]];portConstraint=eastwest;dropTarget=0;" vertex="1" parent="gAcOoP5BeK7Uj13Lkmp1-16">
          <mxGeometry y="138" width="255" height="26" as="geometry" />
        </mxCell>
        <mxCell id="gAcOoP5BeK7Uj13Lkmp1-28" value="" style="shape=partialRectangle;top=0;left=0;bottom=0;html=1;fillColor=none;align=left;verticalAlign=top;spacingLeft=4;spacingRight=4;whiteSpace=wrap;overflow=hidden;rotatable=0;points=[];portConstraint=eastwest;part=1;" vertex="1" connectable="0" parent="gAcOoP5BeK7Uj13Lkmp1-27">
          <mxGeometry width="30" height="26" as="geometry" />
        </mxCell>
        <mxCell id="gAcOoP5BeK7Uj13Lkmp1-29" value="&lt;u&gt;TRANSACTION_TYPE&lt;/u&gt; (varchar 50)" style="shape=partialRectangle;top=0;left=0;right=0;bottom=0;html=1;align=left;verticalAlign=top;fillColor=none;spacingLeft=34;spacingRight=4;whiteSpace=wrap;overflow=hidden;rotatable=0;points=[[0,0.5],[1,0.5]];portConstraint=eastwest;dropTarget=0;" vertex="1" parent="gAcOoP5BeK7Uj13Lkmp1-16">
          <mxGeometry y="164" width="255" height="26" as="geometry" />
        </mxCell>
        <mxCell id="gAcOoP5BeK7Uj13Lkmp1-30" value="" style="shape=partialRectangle;top=0;left=0;bottom=0;html=1;fillColor=none;align=left;verticalAlign=top;spacingLeft=4;spacingRight=4;whiteSpace=wrap;overflow=hidden;rotatable=0;points=[];portConstraint=eastwest;part=1;" vertex="1" connectable="0" parent="gAcOoP5BeK7Uj13Lkmp1-29">
          <mxGeometry width="30" height="26" as="geometry" />
        </mxCell>
        <mxCell id="gAcOoP5BeK7Uj13Lkmp1-31" value="DESCRIPTION (text)" style="shape=partialRectangle;top=0;left=0;right=0;bottom=0;html=1;align=left;verticalAlign=top;fillColor=none;spacingLeft=34;spacingRight=4;whiteSpace=wrap;overflow=hidden;rotatable=0;points=[[0,0.5],[1,0.5]];portConstraint=eastwest;dropTarget=0;" vertex="1" parent="gAcOoP5BeK7Uj13Lkmp1-16">
          <mxGeometry y="190" width="255" height="26" as="geometry" />
        </mxCell>
        <mxCell id="gAcOoP5BeK7Uj13Lkmp1-32" value="" style="shape=partialRectangle;top=0;left=0;bottom=0;html=1;fillColor=none;align=left;verticalAlign=top;spacingLeft=4;spacingRight=4;whiteSpace=wrap;overflow=hidden;rotatable=0;points=[];portConstraint=eastwest;part=1;" vertex="1" connectable="0" parent="gAcOoP5BeK7Uj13Lkmp1-31">
          <mxGeometry width="30" height="26" as="geometry" />
        </mxCell>
        <mxCell id="gAcOoP5BeK7Uj13Lkmp1-33" value="Accounts" style="swimlane;html=1;fontStyle=1;childLayout=stackLayout;horizontal=1;startSize=26;fillColor=#e0e0e0;horizontalStack=0;resizeParent=1;resizeLast=0;collapsible=1;marginBottom=0;swimlaneFillColor=#ffffff;align=center;rounded=0;shadow=0;comic=0;labelBackgroundColor=none;strokeWidth=1;fontFamily=Verdana;fontSize=14" vertex="1" parent="1">
          <mxGeometry x="330" y="40" width="220" height="190" as="geometry" />
        </mxCell>
        <mxCell id="gAcOoP5BeK7Uj13Lkmp1-34" value="ACCOUNT_ID (integer)" style="shape=partialRectangle;top=0;left=0;right=0;bottom=1;html=1;align=left;verticalAlign=middle;fillColor=none;spacingLeft=34;spacingRight=4;whiteSpace=wrap;overflow=hidden;rotatable=0;points=[[0,0.5],[1,0.5]];portConstraint=eastwest;dropTarget=0;fontStyle=5;" vertex="1" parent="gAcOoP5BeK7Uj13Lkmp1-33">
          <mxGeometry y="26" width="220" height="30" as="geometry" />
        </mxCell>
        <mxCell id="gAcOoP5BeK7Uj13Lkmp1-35" value="PK" style="shape=partialRectangle;top=0;left=0;bottom=0;html=1;fillColor=none;align=left;verticalAlign=middle;spacingLeft=4;spacingRight=4;whiteSpace=wrap;overflow=hidden;rotatable=0;points=[];portConstraint=eastwest;part=1;fontStyle=1" vertex="1" connectable="0" parent="gAcOoP5BeK7Uj13Lkmp1-34">
          <mxGeometry width="30" height="30" as="geometry" />
        </mxCell>
        <mxCell id="gAcOoP5BeK7Uj13Lkmp1-36" value="USER_ID" style="shape=partialRectangle;top=0;left=0;right=0;bottom=1;html=1;align=left;verticalAlign=middle;fillColor=none;spacingLeft=34;spacingRight=4;whiteSpace=wrap;overflow=hidden;rotatable=0;points=[[0,0.5],[1,0.5]];portConstraint=eastwest;dropTarget=0;fontStyle=5;" vertex="1" parent="gAcOoP5BeK7Uj13Lkmp1-33">
          <mxGeometry y="56" width="220" height="30" as="geometry" />
        </mxCell>
        <mxCell id="gAcOoP5BeK7Uj13Lkmp1-37" value="FK" style="shape=partialRectangle;top=0;left=0;bottom=0;html=1;fillColor=none;align=left;verticalAlign=middle;spacingLeft=4;spacingRight=4;whiteSpace=wrap;overflow=hidden;rotatable=0;points=[];portConstraint=eastwest;part=1;fontStyle=1" vertex="1" connectable="0" parent="gAcOoP5BeK7Uj13Lkmp1-36">
          <mxGeometry width="30" height="30" as="geometry" />
        </mxCell>
        <mxCell id="gAcOoP5BeK7Uj13Lkmp1-38" value="&lt;u&gt;INSTITUTION&lt;/u&gt; (varchar 50)" style="shape=partialRectangle;top=0;left=0;right=0;bottom=0;html=1;align=left;verticalAlign=top;fillColor=none;spacingLeft=34;spacingRight=4;whiteSpace=wrap;overflow=hidden;rotatable=0;points=[[0,0.5],[1,0.5]];portConstraint=eastwest;dropTarget=0;" vertex="1" parent="gAcOoP5BeK7Uj13Lkmp1-33">
          <mxGeometry y="86" width="220" height="26" as="geometry" />
        </mxCell>
        <mxCell id="gAcOoP5BeK7Uj13Lkmp1-39" value="" style="shape=partialRectangle;top=0;left=0;bottom=0;html=1;fillColor=none;align=left;verticalAlign=top;spacingLeft=4;spacingRight=4;whiteSpace=wrap;overflow=hidden;rotatable=0;points=[];portConstraint=eastwest;part=1;" vertex="1" connectable="0" parent="gAcOoP5BeK7Uj13Lkmp1-38">
          <mxGeometry width="30" height="26" as="geometry" />
        </mxCell>
        <mxCell id="gAcOoP5BeK7Uj13Lkmp1-52" value="&lt;u&gt;ACCOUNT_NAME&lt;/u&gt; (varchar 50)" style="shape=partialRectangle;top=0;left=0;right=0;bottom=0;html=1;align=left;verticalAlign=top;fillColor=none;spacingLeft=34;spacingRight=4;whiteSpace=wrap;overflow=hidden;rotatable=0;points=[[0,0.5],[1,0.5]];portConstraint=eastwest;dropTarget=0;" vertex="1" parent="gAcOoP5BeK7Uj13Lkmp1-33">
          <mxGeometry y="112" width="220" height="26" as="geometry" />
        </mxCell>
        <mxCell id="gAcOoP5BeK7Uj13Lkmp1-53" value="" style="shape=partialRectangle;top=0;left=0;bottom=0;html=1;fillColor=none;align=left;verticalAlign=top;spacingLeft=4;spacingRight=4;whiteSpace=wrap;overflow=hidden;rotatable=0;points=[];portConstraint=eastwest;part=1;" vertex="1" connectable="0" parent="gAcOoP5BeK7Uj13Lkmp1-52">
          <mxGeometry width="30" height="26" as="geometry" />
        </mxCell>
        <mxCell id="gAcOoP5BeK7Uj13Lkmp1-40" value="&lt;u&gt;ACCOUNT_&lt;/u&gt;&lt;u&gt;TYPE &lt;/u&gt;(varchar 50)" style="shape=partialRectangle;top=0;left=0;right=0;bottom=0;html=1;align=left;verticalAlign=top;fillColor=none;spacingLeft=34;spacingRight=4;whiteSpace=wrap;overflow=hidden;rotatable=0;points=[[0,0.5],[1,0.5]];portConstraint=eastwest;dropTarget=0;" vertex="1" parent="gAcOoP5BeK7Uj13Lkmp1-33">
          <mxGeometry y="138" width="220" height="26" as="geometry" />
        </mxCell>
        <mxCell id="gAcOoP5BeK7Uj13Lkmp1-41" value="" style="shape=partialRectangle;top=0;left=0;bottom=0;html=1;fillColor=none;align=left;verticalAlign=top;spacingLeft=4;spacingRight=4;whiteSpace=wrap;overflow=hidden;rotatable=0;points=[];portConstraint=eastwest;part=1;" vertex="1" connectable="0" parent="gAcOoP5BeK7Uj13Lkmp1-40">
          <mxGeometry width="30" height="26" as="geometry" />
        </mxCell>
        <mxCell id="gAcOoP5BeK7Uj13Lkmp1-42" value="&lt;u&gt;BALANCE &lt;/u&gt;(real) (2)" style="shape=partialRectangle;top=0;left=0;right=0;bottom=0;html=1;align=left;verticalAlign=top;fillColor=none;spacingLeft=34;spacingRight=4;whiteSpace=wrap;overflow=hidden;rotatable=0;points=[[0,0.5],[1,0.5]];portConstraint=eastwest;dropTarget=0;" vertex="1" parent="gAcOoP5BeK7Uj13Lkmp1-33">
          <mxGeometry y="164" width="220" height="26" as="geometry" />
        </mxCell>
        <mxCell id="gAcOoP5BeK7Uj13Lkmp1-43" value="" style="shape=partialRectangle;top=0;left=0;bottom=0;html=1;fillColor=none;align=left;verticalAlign=top;spacingLeft=4;spacingRight=4;whiteSpace=wrap;overflow=hidden;rotatable=0;points=[];portConstraint=eastwest;part=1;" vertex="1" connectable="0" parent="gAcOoP5BeK7Uj13Lkmp1-42">
          <mxGeometry width="30" height="26" as="geometry" />
        </mxCell>
        <mxCell id="gAcOoP5BeK7Uj13Lkmp1-44" value="&lt;u&gt;Not Null&lt;/u&gt;&lt;div&gt;&lt;b&gt;Unique&lt;/b&gt;&lt;/div&gt;" style="text;html=1;align=center;verticalAlign=middle;whiteSpace=wrap;rounded=0;fontSize=15;" vertex="1" parent="1">
          <mxGeometry x="600" y="40" width="80" height="50" as="geometry" />
        </mxCell>
        <mxCell id="gAcOoP5BeK7Uj13Lkmp1-45" value="&lt;span&gt;(1) default: current_timestamp&lt;/span&gt;" style="text;html=1;align=left;verticalAlign=middle;whiteSpace=wrap;rounded=0;fontStyle=0" vertex="1" parent="1">
          <mxGeometry x="40" y="278" width="200" height="30" as="geometry" />
        </mxCell>
        <mxCell id="gAcOoP5BeK7Uj13Lkmp1-46" value="&lt;span&gt;(2) default: 0&lt;/span&gt;" style="text;html=1;align=left;verticalAlign=middle;whiteSpace=wrap;rounded=0;fontStyle=0" vertex="1" parent="1">
          <mxGeometry x="330" y="240" width="200" height="30" as="geometry" />
        </mxCell>
        <mxCell id="gAcOoP5BeK7Uj13Lkmp1-47" value="&lt;div&gt;(3) default: 0&lt;span&gt;&lt;/span&gt;&lt;/div&gt;&lt;span&gt;(4) default: current_timestamp&lt;/span&gt;" style="text;html=1;align=left;verticalAlign=middle;whiteSpace=wrap;rounded=0;fontStyle=0;spacing=2;spacingTop=0;" vertex="1" parent="1">
          <mxGeometry x="325" y="536" width="200" height="34" as="geometry" />
        </mxCell>
      </root>
    </mxGraphModel>
  </diagram>
</mxfile>
